<svg width="13" height="14" viewBox="153.358 1.3382 12.642 13.3821" fill="none" xmlns="http://www.w3.org/2000/svg">
  <path fill-rule="evenodd" clip-rule="evenodd" d="M153.358 1.3382V14.7203H166V1.3382H153.358ZM160.472 12.9004L159.687 13.3704L158.899 12.9068V11.068L159.681 10.6107L160.472 11.068V12.9004ZM164.233 6.33715V6.33084L161.267 8.0718L164.23 9.81276V10.7432L163.423 11.191L159.687 9.00221L155.904 11.2194L155.125 10.7369V9.82538L158.107 8.07811L155.125 6.33084V5.4099L155.917 4.94627L158.899 6.69354V3.16747L159.69 2.70384L160.469 3.16116H160.475V6.703L163.457 4.95258L164.236 5.4099V6.34977L164.233 6.33715Z" fill="#51514E"/>
</svg>
