<svg width="166" height="17" viewBox="0 0 166 17" fill="none" xmlns="http://www.w3.org/2000/svg">
<path d="M8.30578 8.12773C9.66361 7.72409 10.4297 6.74916 10.4297 5.00111C10.4266 2.18497 8.31513 1.40875 5.5185 1.40875H0V14.5828H2.33571V9.13682H5.52785C7.1971 9.13682 7.9819 9.78884 8.09401 11.3071L8.33381 14.5828H10.6789L10.411 11.1426C10.2896 9.5684 9.60755 8.54689 8.30578 8.12462V8.12773ZM5.54653 7.28009H2.33571V3.28721H5.3441C7.06007 3.28721 8.08467 3.58217 8.08467 5.27434C8.08467 6.9665 7.09744 7.28009 5.54653 7.28009Z" fill="#51514E"/>
<path d="M15.6275 5.05389C12.7655 5.05389 11.1242 6.8392 11.1242 9.92236C11.1242 13.0055 12.7219 14.7908 15.6462 14.7908C18.0722 14.7908 19.5857 13.6234 19.9376 11.8008L17.7421 11.7915C17.4929 12.5926 16.8389 13.1452 15.6835 13.1452C14.033 13.1452 13.3665 12.0492 13.3572 10.3757H20.0124V9.74227C20.0124 6.74295 18.3525 5.0601 15.6275 5.0601V5.05389ZM13.3852 8.91016C13.516 7.52228 14.1887 6.63739 15.6088 6.63739C17.0289 6.63739 17.686 7.49434 17.7857 8.91016H13.3852Z" fill="#51514E"/>
<path d="M21.7564 3.37104V5.25571H20.2802V6.98513H21.7564V14.5859H23.9893V6.98513H25.6585V5.25571H23.9893V3.7281C23.9893 3.35241 24.0734 3.11955 24.581 3.11955H25.6617V1.40875H23.9924C22.4695 1.40875 21.7595 2.09804 21.7595 3.36794L21.7564 3.37104Z" fill="#51514E"/>
<path d="M30.2646 5.05389C27.4025 5.05389 25.7613 6.8392 25.7613 9.92236C25.7613 13.0055 27.3589 14.7908 30.2833 14.7908C32.7093 14.7908 34.2228 13.6234 34.5747 11.8008L32.3792 11.7915C32.13 12.5926 31.476 13.1452 30.3206 13.1452C28.6701 13.1452 28.0036 12.0492 27.9943 10.3757H34.6495V9.74227C34.6495 6.74295 32.9896 5.0601 30.2646 5.0601V5.05389ZM28.0223 8.91016C28.1531 7.52228 28.8258 6.63739 30.2459 6.63739C31.666 6.63739 32.3231 7.49434 32.4228 8.91016H28.0223Z" fill="#51514E"/>
<path d="M37.8136 6.97582V5.25571H35.646V14.5859H37.8883V9.68328C37.8883 8.24882 38.5423 7.14348 40.1212 7.14348H41.0618V5.22156H40.361C39.0966 5.22156 38.2309 5.87358 37.8136 6.97892V6.97582Z" fill="#51514E"/>
<path d="M45.6865 5.05389C42.8244 5.05389 41.1832 6.8392 41.1832 9.92236C41.1832 13.0055 42.7808 14.7908 45.7052 14.7908C48.1312 14.7908 49.6447 13.6234 49.9966 11.8008L47.8011 11.7915C47.5519 12.5926 46.8979 13.1452 45.7425 13.1452C44.092 13.1452 43.4255 12.0492 43.4162 10.3757H50.0714V9.74227C50.0714 6.74295 48.4115 5.0601 45.6865 5.0601V5.05389ZM43.4442 8.91016C43.575 7.52228 44.2477 6.63739 45.6678 6.63739C47.0879 6.63739 47.745 7.49434 47.8447 8.91016H43.4442Z" fill="#51514E"/>
<path d="M56.3124 5.05389C54.8176 5.05389 53.821 5.73386 53.2573 6.774V5.25571H51.0898V14.5859H53.332V9.15856C53.332 7.8514 54.0141 6.82989 55.5183 6.82989C56.7827 6.82989 57.2156 7.5378 57.2156 8.64314V14.5859H59.4485V8.30161C59.4485 6.37037 58.4239 5.05389 56.3093 5.05389H56.3124Z" fill="#51514E"/>
<path d="M64.9701 13.049C63.3538 13.049 62.7185 11.7884 62.7185 9.91925C62.7185 8.05011 63.3538 6.78332 64.9701 6.78332C66.1504 6.78332 66.8075 7.49123 67.0286 8.57794H69.2709C68.9657 6.32379 67.2965 5.05389 64.9421 5.05389C62.1454 5.05389 60.4482 6.89509 60.4482 9.92236C60.4482 12.9496 62.1454 14.7908 64.9421 14.7908C67.3401 14.7908 69.0218 13.4464 69.2896 11.1022H67.0567C66.8636 12.279 66.2065 13.0521 64.9701 13.0521V13.049Z" fill="#51514E"/>
<path d="M72.4537 5.25574H70.2114V14.5859H72.4537V5.25574Z" fill="#51514E"/>
<path d="M72.4911 1.40875H70.1741V3.48903H72.4911V1.40875Z" fill="#51514E"/>
<path d="M77.8445 5.05389C75.4559 5.05389 74.0233 5.97293 73.7742 8.02526H75.8981C76.0538 7.07827 76.6455 6.63738 77.7791 6.63738C79.1712 6.63738 79.5885 7.30803 79.5885 8.29228V8.69592C78.1497 8.75181 76.7265 8.94431 75.5368 9.39452C74.3378 9.85404 73.5437 10.6085 73.5437 12.0896C73.5437 13.7817 74.7334 14.766 76.5147 14.766C78.0656 14.766 79.1619 14.0022 79.6539 13.0459L79.6633 14.5828H81.8028V8.32644C81.8028 6.2089 80.4543 5.05078 77.8445 5.05078V5.05389ZM79.5885 11.127C79.5885 12.2479 78.6106 13.1421 77.2622 13.1421C76.3777 13.1421 75.7953 12.7385 75.7953 11.9002C75.7953 11.2016 76.1659 10.7855 76.8666 10.503C77.5674 10.208 78.5826 10.0714 79.5885 10.0155V11.1301V11.127Z" fill="#51514E"/>
<path d="M93.7647 10.4378L89.9372 1.40875H87.3337V14.5859H89.4763V5.32091L93.4065 14.5859H94.0605L98.0032 5.32091V14.5859H100.227V1.40875H97.5952L93.7647 10.4378Z" fill="#51514E"/>
<path d="M105.515 5.05389C103.126 5.05389 101.694 5.97293 101.445 8.02526H103.569C103.724 7.07827 104.316 6.63738 105.45 6.63738C106.842 6.63738 107.259 7.30803 107.259 8.29228V8.69592C105.82 8.75181 104.397 8.94431 103.207 9.39452C102.008 9.85404 101.214 10.6085 101.214 12.0896C101.214 13.7817 102.404 14.766 104.185 14.766C105.736 14.766 106.832 14.0022 107.324 13.0459L107.334 14.5828H109.473V8.32644C109.473 6.2089 108.125 5.05078 105.515 5.05078V5.05389ZM107.259 11.127C107.259 12.2479 106.281 13.1421 104.933 13.1421C104.048 13.1421 103.466 12.7385 103.466 11.9002C103.466 11.2016 103.836 10.7855 104.537 10.503C105.238 10.208 106.253 10.0714 107.259 10.0155V11.1301V11.127Z" fill="#51514E"/>
<path d="M119.461 5.25574H117.072L114.914 8.64317L112.743 5.25574H110.289L113.472 9.91307L110.168 14.5859H112.559L114.82 11.1271L117.109 14.5859H119.563L116.259 9.90375L119.461 5.25574Z" fill="#51514E"/>
<path d="M122.704 1.40875H120.387V3.48903H122.704V1.40875Z" fill="#51514E"/>
<path d="M122.666 5.25574H120.424V14.5859H122.666V5.25574Z" fill="#51514E"/>
<path d="M134.82 5.05389C133.26 5.05389 132.245 5.79907 131.709 6.91372C131.314 5.77423 130.37 5.05389 128.838 5.05389C127.306 5.05389 126.393 5.73386 125.839 6.76469V5.25571H123.671V14.5859H125.913V9.13993C125.913 7.8514 126.577 6.82989 128.028 6.82989C129.255 6.82989 129.679 7.52849 129.679 8.6152V14.5859H131.921V9.1213C131.921 7.84208 132.575 6.82989 134.035 6.82989C135.262 6.82989 135.686 7.52849 135.686 8.6152V14.5859H137.928V8.27366C137.928 6.33311 136.885 5.05389 134.817 5.05389H134.82Z" fill="#51514E"/>
<path d="M143.294 5.05389C140.906 5.05389 139.473 5.97293 139.224 8.02526H141.348C141.503 7.07827 142.095 6.63738 143.229 6.63738C144.621 6.63738 145.038 7.30803 145.038 8.29228V8.69592C143.599 8.75181 142.176 8.94431 140.987 9.39452C139.788 9.85404 138.993 10.6085 138.993 12.0896C138.993 13.7817 140.183 14.766 141.964 14.766C143.515 14.766 144.612 14.0022 145.104 13.0459L145.113 14.5828H147.252V8.32644C147.252 6.2089 145.904 5.05078 143.294 5.05078V5.05389ZM145.038 11.127C145.038 12.2479 144.06 13.1421 142.712 13.1421C141.827 13.1421 141.245 12.7385 141.245 11.9002C141.245 11.2016 141.616 10.7855 142.316 10.503C143.017 10.208 144.032 10.0714 145.038 10.0155V11.1301V11.127Z" fill="#51514E"/>
<path d="M107.695 1.40875L103.164 2.50788V3.87403L107.695 3.15059V1.40875Z" fill="#51514E"/>
<path d="M48.2526 4.47017V2.72833L46.3187 1.40875H45.5806H44.8394L42.9054 2.72833V4.47017L45.5806 2.7749L48.2526 4.47017Z" fill="#51514E"/>
<path fill-rule="evenodd" clip-rule="evenodd" d="M153.358 1.3382V14.7203H166V1.3382H153.358ZM160.472 12.9004L159.687 13.3704L158.899 12.9068V11.068L159.681 10.6107L160.472 11.068V12.9004ZM164.233 6.33715V6.33084L161.267 8.0718L164.23 9.81276V10.7432L163.423 11.191L159.687 9.00221L155.904 11.2194L155.125 10.7369V9.82538L158.107 8.07811L155.125 6.33084V5.4099L155.917 4.94627L158.899 6.69354V3.16747L159.69 2.70384L160.469 3.16116H160.475V6.703L163.457 4.95258L164.236 5.4099V6.34977L164.233 6.33715Z" fill="#51514E"/>
</svg>
