<svg width="415" height="410" viewBox="0 0 415 410" fill="none" xmlns="http://www.w3.org/2000/svg">
<path d="M179.424 326.081C156.75 326.081 138.974 317.375 126.095 299.961C113.398 282.366 107.049 258.604 107.049 228.674C107.049 198.564 113.579 174.801 126.639 157.388C139.881 139.974 157.567 131.268 179.696 131.268C201.826 131.268 219.33 139.974 232.209 157.388C245.269 174.62 251.799 198.382 251.799 228.674C251.799 258.785 245.45 282.548 232.753 299.961C220.237 317.375 202.461 326.081 179.424 326.081ZM142.965 285.813C151.309 299.417 163.552 306.219 179.696 306.219C195.84 306.219 207.902 299.508 215.884 286.085C224.046 272.48 228.128 253.344 228.128 228.674C228.128 204.368 223.956 185.322 215.612 171.536C207.449 157.751 195.477 150.858 179.696 150.858C163.552 150.858 151.309 157.66 142.965 171.264C134.802 184.869 130.721 204.005 130.721 228.674C130.721 252.981 134.802 272.027 142.965 285.813ZM312.602 322V186.229H271.789V170.992C299.36 170.267 314.688 158.113 317.771 134.533H335.457V322H312.602Z" fill="url(#paint0_linear_2043_236)"/>
<path d="M212.413 77.946C212.508 77.6387 212.568 77.3216 212.591 77.0009C212.627 76.9825 212.666 76.9705 212.706 76.9653C212.81 76.8942 212.908 76.8148 212.999 76.7279C213.133 76.5188 212.926 76.8655 212.929 77.0427C212.929 77.0427 212.806 77.018 212.628 77.0522L212.523 77.0848C212.523 77.0848 212.523 77.0848 212.418 77.1174C212.131 77.279 211.86 77.4683 211.609 77.6825C210.553 78.603 209.446 79.4637 208.294 80.2604C207.417 80.8374 206.409 81.1859 205.363 81.2744C205.05 81.2769 204.738 81.2439 204.432 81.1758C203.986 81.0643 203.581 80.8262 203.266 80.4903C202.644 79.6645 202.348 78.6379 202.435 77.6073C202.486 77.1735 202.589 76.7476 202.743 76.339C202.932 75.935 203.133 75.5375 203.402 75.0876C204.11 73.928 204.983 72.8776 205.994 71.9695C206.243 71.7412 206.479 71.5001 206.702 71.2474C206.88 71.0455 207.126 70.7913 207.102 70.7465C207.151 70.6623 207.179 70.5674 207.183 70.4699C207.188 70.4264 207.2 70.3839 207.218 70.3441L207.209 70.1478L207.189 69.8817L207.361 69.8284C207.433 69.7816 207.501 69.729 207.564 69.6713C207.525 69.7877 207.499 69.9081 207.487 70.0303C207.502 70.078 207.43 70.048 207.324 70.0806C206.515 70.3599 205.753 70.7621 205.066 71.2732C204.258 71.8066 203.437 72.3651 202.556 72.9001C201.998 73.23 201.704 72.7874 201.705 71.9808C201.723 70.8835 202.141 69.8303 202.881 69.0196C203.295 68.6005 203.731 68.2031 204.187 67.8293C204.718 67.3845 205.308 67.0148 205.94 66.7305C206.422 66.5127 206.94 66.3873 207.469 66.3608C207.876 66.3432 208.283 66.3978 208.671 66.522C209.147 66.6643 209.584 66.9161 209.946 67.2572C210.486 67.7776 210.871 68.4369 211.06 69.1626C211.121 69.4005 211.164 69.6424 211.191 69.8865C211.217 70.1175 211.223 70.3506 211.208 70.5827C211.196 70.8481 211.174 71.1165 211.14 71.3783C211.09 71.6249 211.025 71.8685 210.948 72.1081L210.827 72.4598C210.74 72.3505 210.74 72.3505 210.74 72.3505L210.633 72.5095L210.384 72.5866C210.042 72.7668 209.714 72.9736 209.403 73.2049C208.835 73.601 208.662 74.1889 208.872 74.5634C209.011 74.7402 209.272 74.6382 209.442 74.5437L209.92 74.2279C210.278 73.9539 210.666 73.7212 211.076 73.5341C211.153 73.5104 211.162 73.5075 211.506 73.4008C211.85 73.2941 212.001 73.31 212.252 73.2741C212.518 73.2433 212.786 73.2373 213.052 73.2561C213.349 73.2573 213.644 73.2997 213.929 73.382C214.239 73.4652 214.537 73.5873 214.817 73.7454C215.577 74.2344 216.129 74.989 216.363 75.8622C216.665 76.9575 216.684 78.1113 216.42 79.2161C216.3 79.7654 216.114 80.2979 215.864 80.8018C215.782 80.9424 215.745 81.0586 215.637 81.2177C215.53 81.3767 215.422 81.5358 215.331 81.6477C215.157 81.851 214.973 82.0445 214.778 82.2276C214.176 82.7496 213.621 83.1206 213.012 83.6551C212.72 83.8986 212.454 84.1706 212.217 84.4671C211.986 84.7375 211.75 85.1563 212.031 85.4564C212.313 85.7565 212.662 85.5645 212.971 85.4476C213.28 85.3308 213.616 85.1638 213.891 85.0367C214.373 84.796 214.885 84.6196 215.413 84.512L215.604 84.4527L215.832 84.4764C216.145 84.4996 216.455 84.5581 216.755 84.6508C217.571 84.8461 218.276 85.3582 218.714 86.0741C218.883 86.5705 218.808 87.117 218.513 87.5501C218.4 87.7767 218.267 87.993 218.116 88.1965C217.841 88.4829 217.466 88.6518 217.069 88.668C216.655 88.7284 216.233 88.6947 215.834 88.5694C215.613 88.4792 215.378 88.4282 215.139 88.4188L214.956 88.4023L214.87 88.429L214.556 88.4319C214.318 88.4075 214.077 88.446 213.858 88.5438C213.591 88.6268 213.352 88.7008 213.035 88.8618C212.427 89.1397 211.804 89.3853 211.17 89.5977C210.904 89.6772 210.633 89.7402 210.359 89.7863C210.149 89.8514 209.877 89.8521 209.7 89.8547C209.382 89.868 209.063 89.8475 208.749 89.7936C208.541 89.774 208.335 89.7326 208.135 89.6701C207.868 89.5999 207.613 89.4923 207.376 89.3505C207.035 89.137 206.751 88.8446 206.546 88.4981C206.36 88.216 206.221 87.9054 206.135 87.5786L206.003 86.8135C205.892 86.3535 205.913 85.8717 206.064 85.4231C206.101 85.2206 206.172 85.0255 206.272 84.8455C206.377 84.6452 206.454 84.4539 206.578 84.2478L206.953 83.5977C207.125 83.3767 207.338 83.1535 207.52 82.9296C207.702 82.7056 207.932 82.4669 208.142 82.2341C208.359 81.9874 208.591 81.7546 208.837 81.537L210.359 80.1329L211.121 79.415L211.608 78.9287C211.671 78.8789 211.738 78.8337 211.807 78.7937L212.153 79.0634C212.386 79.2332 212.63 79.3883 212.883 79.5279L213.074 79.6362L211.683 78.8322C211.903 78.5467 212.058 78.2163 212.137 77.8643L212.413 77.946Z" fill="url(#paint1_linear_2043_236)"/>
<path d="M215.753 73.591L216.741 75.6613C217.036 76.376 217.347 77.0752 217.62 77.7863C217.786 78.3211 218.115 78.774 218.29 79.3059C218.867 81.1838 219.259 83.1137 219.46 85.068C219.591 85.9279 219.718 86.7783 219.855 87.6257C220.068 88.741 220 89.8915 219.659 90.9743C219.525 91.3194 218.942 91.1965 218.326 90.8958C217.701 90.6591 217.186 90.2 216.879 89.6066C216.371 87.7117 216.003 85.7821 215.779 83.8333C215.504 82.6188 215.09 81.4404 214.543 80.3218C214.281 79.6805 214.029 79.0363 213.732 78.4165C213.435 77.7966 213.151 77.1518 212.823 76.5313C212.447 75.758 211.991 75.0304 211.551 74.2874C210.898 73.1638 210.148 72.1002 209.308 71.109C208.558 70.4323 207.752 69.8207 206.898 69.281C206.721 69.1476 206.524 69.0517 206.353 68.9058C205.744 68.3616 205.752 67.9823 206.321 67.0832C206.458 66.8837 206.57 66.671 206.72 66.478C207.101 65.8586 207.862 65.5878 208.549 65.8268C209.03 65.9991 209.499 66.2033 209.953 66.4382C210.39 66.7057 210.8 67.0129 211.18 67.3559C211.955 68.0405 212.665 68.7944 213.303 69.6081C214.245 70.8397 215.101 72.1342 215.866 73.4827L215.753 73.591Z" fill="url(#paint2_linear_2043_236)"/>
<path d="M230.442 42.6392C228.511 48.3564 225.444 53.6242 221.426 58.1259C220.703 58.9363 219.968 59.7401 219.231 60.5344C218.485 61.3202 217.7 62.0671 216.878 62.7719C214.746 64.5892 212.48 66.244 210.1 67.7223C208.909 68.4374 207.736 69.1783 206.498 69.8134C205.887 70.1391 205.289 70.4713 204.703 70.7785L203.79 71.2085L203.379 71.3359C203.185 71.4156 202.997 71.5089 202.817 71.6151C202.739 71.8058 202.749 72.0206 202.842 72.2039C202.909 72.4008 202.99 72.5927 203.083 72.7783L203.134 72.9407L203.292 73.216L203.647 73.8181C204.447 75.1823 205.37 76.5396 206.265 77.9374C207.159 79.3352 207.88 80.8495 208.601 82.3639C209.586 84.3464 210.308 86.4488 210.751 88.6178C211.181 90.9028 210.991 93.2614 210.199 95.4478C209.579 96.8233 208.805 96.184 208.116 94.9424C207.756 94.3212 207.361 93.5538 206.988 92.7584C206.563 91.9297 206.236 91.0547 206.012 90.1506C205.615 88.5945 205.104 87.0699 204.482 85.5892C203.787 84.021 203.011 82.4897 202.158 81.0016C201.419 79.43 200.702 77.7575 199.817 76.0531L198.995 74.3817C198.785 74.0049 198.601 73.6143 198.444 73.2125C198.285 72.837 198.164 72.4467 198.082 72.0473C197.95 71.3095 198.046 70.5488 198.359 69.8674C198.786 69.2152 199.376 68.6857 200.07 68.3313L201.288 67.7337L201.892 67.4522L202.221 67.2978C202.689 67.1526 203.143 66.8965 203.54 66.6897C208.011 64.4481 212.088 61.4931 215.61 57.9408C219.569 54.1568 222.729 49.6163 224.901 44.5885C226.229 41.4571 227.209 38.1896 227.825 34.8445C228.195 33.3372 228.502 31.797 228.842 30.2258C229.014 29.4291 229.211 28.6457 229.425 27.7835C229.602 26.679 230.31 25.7317 231.319 25.2485L231.901 25.0678C232.048 25.0121 232.198 24.9656 232.35 24.9286C232.678 24.848 233.011 24.7936 233.347 24.766C234.021 24.6993 234.701 24.7543 235.355 24.9283C236.641 25.3231 237.757 26.1385 238.523 27.2435C239.769 29.15 240.541 31.3263 240.775 33.5913C240.92 34.6695 240.991 35.7563 240.989 36.8442C240.963 37.9314 240.855 39.015 240.664 40.0858C240.518 41.0328 240.308 41.9689 240.036 42.8877C239.677 44.1481 239.08 45.3283 238.278 46.3649C237.863 46.9125 237.232 47.2535 236.547 47.2996C236.277 47.3488 236.003 47.36 235.73 47.3331C234.933 47.1614 235.168 45.7588 235.761 43.6173C236.551 40.3875 236.786 37.0466 236.455 33.738C236.365 32.2863 235.955 30.8725 235.254 29.5978C235.04 29.2202 234.723 28.9117 234.34 28.7089C233.954 28.5402 233.523 28.5045 233.115 28.6073C233.032 28.6219 232.952 28.6468 232.876 28.6814C232.876 28.6814 232.876 28.6814 232.923 28.6665C232.923 28.6665 232.971 28.6517 232.923 28.6665C232.881 28.7712 232.848 28.8796 232.825 28.9903L232.713 29.3706C232.674 29.6861 232.656 29.9641 232.63 30.2862L232.433 34.2737C232.39 34.9818 232.304 35.6866 232.177 36.3844C232.039 37.0868 231.878 37.7856 231.718 38.4845C231.376 39.8785 231.002 41.2718 230.549 42.6477L230.442 42.6392Z" fill="url(#paint3_linear_2043_236)"/>
<path d="M252.539 86.0933C250.038 86.6703 247.597 87.0399 245.086 87.4838C244.176 87.6197 243.304 87.8798 242.4 88.0032C239.206 88.4076 236.002 88.7105 232.802 88.9597C231.377 89.0564 229.965 89.2324 228.548 89.3893C227.648 89.4907 226.728 89.5979 225.804 89.6544L225.095 89.6649L224.431 89.4833C223.95 89.3646 223.479 89.2099 223.021 89.0205C222.444 88.7806 222.603 88.4171 223.135 87.938C223.388 87.6712 223.733 87.3337 224.088 86.9932C224.285 86.8171 224.497 86.6254 224.716 86.4529L225.047 86.2036C225.154 86.1557 225.266 86.1208 225.381 86.0999C228.805 85.7288 232.378 85.0288 236.029 84.9851C238.249 84.7784 240.45 84.4037 242.613 83.8642C245.028 83.415 247.426 82.9191 249.805 82.3765L251.989 81.8244L254.119 81.1637C255.129 80.8246 256.116 80.4239 257.077 79.9637C257.295 79.8644 257.503 79.7437 257.698 79.6035C257.89 79.4844 258.072 79.3507 258.244 79.2037C258.425 79.0438 258.596 78.872 258.754 78.6894C258.885 78.5453 259.005 78.3925 259.115 78.232C259.39 77.8611 259.506 77.3954 259.436 76.9387C259.336 76.5141 258.973 76.2032 258.538 76.1703C258.376 76.1628 258.214 76.171 258.054 76.1949C257.948 76.1944 257.843 76.1695 257.749 76.1221C257.635 76.0244 257.536 75.9104 257.455 75.7838C257.172 75.3556 256.973 74.8768 256.871 74.3736C256.788 74.1061 256.708 73.8482 256.634 73.6095C256.549 73.1745 256.657 72.7239 256.932 72.3758C257.109 72.1323 257.309 71.9056 257.528 71.6988C257.663 71.5941 257.755 71.4189 257.952 71.3787L258.609 71.3008C260.031 71.149 261.458 71.5356 262.609 72.3841C263.166 72.8247 263.646 73.3554 264.028 73.9542C264.324 74.6103 264.503 75.313 264.557 76.0307C264.796 77.4748 263.916 78.9936 263.091 80.3491C262.706 80.9366 262.267 81.4866 261.778 81.9916L261.188 82.5517C260.948 82.7548 260.695 82.9418 260.43 83.1115C259.761 83.5904 259.037 83.9872 258.273 84.2935C257.952 84.4535 257.62 84.5882 257.278 84.6965L256.323 84.9928C255.664 85.1972 255.052 85.3869 254.413 85.5854C253.773 85.7839 253.152 85.9765 252.485 86.1206L252.539 86.0933Z" fill="url(#paint4_linear_2043_236)"/>
<path d="M264.375 61.3348C264.577 61.4814 264.754 61.6464 264.95 61.8055L265.223 62.0453C265.3 62.1573 265.363 62.2788 265.409 62.4066C265.572 62.9319 265.856 63.4092 266.016 63.9249L266.25 64.6794C266.36 64.9163 266.438 65.1669 266.481 65.4244L266.563 66.1947C266.567 66.424 266.544 66.653 266.492 66.8765C266.447 67.2045 266.418 67.517 266.365 67.7847C266.334 68.0665 266.269 68.3433 266.171 68.6094C265.847 69.4781 265.348 70.2708 264.705 70.9382C264.129 71.5683 263.458 72.1048 262.717 72.5287C262.098 72.9229 261.433 73.2383 260.736 73.4677C259.845 73.8589 258.833 73.8663 257.937 73.4881C257.658 73.3652 257.835 72.9229 258.122 72.4672C258.339 72.049 258.656 71.6915 259.046 71.4269C259.6 71.2447 260.126 70.9864 260.608 70.6594C261.134 70.3378 261.635 69.976 262.105 69.5774C262.642 69.0579 262.942 68.3401 262.934 67.5926C262.964 67.2169 262.91 66.9406 262.93 66.7354C262.912 66.4769 262.861 66.2217 262.778 65.9763C262.695 65.6173 262.404 65.3439 262.04 65.2839C261.9 65.271 261.76 65.2691 261.62 65.2783C261.518 65.3007 261.419 65.3314 261.323 65.3701L260.96 65.4827C260.426 65.6486 259.832 65.7279 259.207 65.8382C258.207 66.1052 257.183 66.2755 256.15 66.3466C255.913 66.3687 255.674 66.3764 255.435 66.3696C255.263 66.3145 255.103 66.2251 254.966 66.1067C254.872 65.9392 254.815 65.7537 254.797 65.5623C254.771 65.0966 254.832 64.6301 254.978 64.187C255.047 63.9354 255.106 63.6868 255.19 63.4513C255.326 63.0767 255.521 62.7262 255.768 62.4134C256.007 62.0622 256.271 61.7285 256.557 61.4146C256.825 61.2472 257.106 61.1038 257.398 60.9862C257.604 60.9085 257.815 60.8432 258.029 60.7907C258.415 60.6319 258.814 60.5079 259.223 60.4203C259.624 60.2959 260.208 60.4916 261.457 60.3343L263.052 60.4468L263.773 60.7782L264.422 61.2156L264.375 61.3348Z" fill="url(#paint5_linear_2043_236)"/>
<path d="M252.637 50.4645C254.494 50.6109 256.431 50.7116 258.499 51.0017C259.302 51.0445 260.096 51.1811 260.866 51.4087C262.473 51.9044 263.881 52.8975 264.887 54.2447C265.281 54.8932 265.598 55.5856 265.831 56.3078C265.956 56.6935 266.044 57.0905 266.094 57.4931C266.137 57.926 266.124 58.3626 266.057 58.7923C265.926 59.5512 265.608 60.2654 265.131 60.8699C264.698 61.385 264.184 61.8271 263.611 62.1792C262.351 63.1044 260.78 63.5016 259.232 63.2862C258.756 63.2035 258.805 62.6858 259.084 62.0654C259.352 61.3609 259.803 60.7405 260.39 60.2677C261.222 59.9779 261.946 59.4428 262.468 58.7329C262.548 58.5888 262.584 58.4249 262.573 58.2607C262.515 57.8658 262.396 57.4823 262.22 57.1241C262.162 56.9832 262.092 56.8474 262.011 56.718C261.955 56.629 261.887 56.5478 261.81 56.4766C261.631 56.3045 261.415 56.1746 261.179 56.0965C260.564 55.8771 259.926 55.7238 259.278 55.6391C257.525 55.3293 255.749 55.1588 253.969 55.1293L250.387 55.0258C248.556 54.9213 246.735 54.6887 244.936 54.3296C243.379 54.1548 241.852 53.7729 240.396 53.1938C240.062 53.0565 239.74 52.8899 239.435 52.6961C238.34 51.8634 238.37 51.184 238.979 50.3143C239.115 50.1062 239.262 49.9065 239.422 49.7163C239.954 49.1695 240.727 48.9297 241.475 49.0793C242.477 49.3027 243.329 49.5514 244.275 49.6662C245.221 49.7809 246.227 49.9506 247.329 50.0275C248.956 50.1406 250.72 50.3263 252.589 50.3433L252.637 50.4645Z" fill="url(#paint6_linear_2043_236)"/>
<path d="M243.565 20.0048C243.779 20.2212 243.448 20.4704 242.809 20.7417C242.504 20.8275 242.184 20.852 241.869 20.8137C241.678 20.7197 241.494 20.6123 241.319 20.4922C241.235 20.4241 240.656 19.2005 240.399 18.8092C240.183 18.4406 240.024 18.0417 239.927 17.6259C239.675 16.814 239.426 16.0118 239.126 15.2464C239.064 15.0735 239.036 14.8904 239.042 14.7069C239.082 14.0703 238.943 13.4354 238.641 12.8735C238.608 12.7684 238.579 12.6729 238.425 12.6159C238.008 12.0767 237.706 11.4579 237.536 10.7975C237.549 10.1968 237.421 9.65014 237.444 9.01486C237.42 8.93845 237.397 8.86204 237.482 8.73098C237.649 8.56664 237.685 8.311 237.571 8.10657C237.535 7.99196 237.497 7.8678 237.458 7.74363C237.451 7.601 237.459 7.45802 237.483 7.31715C237.535 7.13893 237.6 6.9648 237.677 6.79617C237.792 6.64679 237.961 6.54908 238.148 6.52453C238.315 6.55649 238.439 6.38196 238.57 6.29932C238.621 6.2739 238.676 6.25689 238.732 6.24895C239.065 6.34419 239.391 6.45982 239.709 6.5952C240.028 6.74058 240.329 6.92088 240.608 7.13277L240.855 7.42262C241.045 7.62284 241.218 7.83916 241.37 8.06916C241.695 8.57571 242.022 9.12343 242.105 9.22323C242.188 9.32303 242.185 9.48111 242.16 9.63556C242.134 9.79001 243.09 11.284 243.085 11.3693C243.195 11.7227 243.412 12.053 243.216 12.5012C243.206 12.5808 243.231 12.6608 243.284 12.7209C243.478 13.3358 243.574 13.977 243.57 14.6215C243.595 14.9383 243.693 15.2535 243.737 15.5644C243.755 15.6217 243.715 15.6968 243.711 15.7505C243.687 15.8247 243.675 15.9026 243.678 15.9807C243.833 16.7177 243.782 17.4979 243.992 18.2076C244.045 18.3796 243.818 19.2351 243.887 19.4232C243.956 19.6113 243.475 19.9175 243.565 20.0048Z" fill="url(#paint7_linear_2043_236)"/>
<path d="M256.052 31.166C256.022 31.4058 255.706 31.3992 255.243 31.2914C255.042 31.2205 254.865 31.0939 254.732 30.9264C254.695 30.7582 254.67 30.5875 254.658 30.4156C254.631 30.3297 255.09 29.0773 255.233 28.6248C255.363 28.1934 255.552 27.7821 255.796 27.403C256.245 26.6321 256.776 25.9125 257.381 25.257C257.519 25.1075 257.684 24.9854 257.867 24.8971C258.479 24.5958 259.037 24.1961 259.52 23.714C259.616 23.6844 259.71 23.5819 259.732 23.4179C260.22 22.806 260.85 22.323 261.568 22.0109C261.901 21.9705 262.194 21.8691 262.561 21.8388L263.524 21.7704C263.61 21.7438 263.696 21.7171 263.818 21.805C264.113 22.0484 264.258 21.9408 264.438 21.9161C264.694 21.8561 264.959 21.8487 265.217 21.8945C265.382 21.9483 265.536 22.0319 265.67 22.1412C265.811 22.2232 265.83 22.6569 265.845 22.7047C265.86 22.7524 265.943 23.0199 265.996 23.1918L266.05 23.3637C265.777 23.8816 265.461 24.3755 265.105 24.84L264.87 25.028L264.374 25.4541C264.022 25.7725 263.61 25.9948 263.528 26.1038C263.447 26.2128 263.328 26.166 263.223 26.1986C263.118 26.2312 262.131 27.1341 262.086 27.1585C261.809 27.2444 261.663 27.5513 261.257 27.489C261.194 27.4748 261.128 27.4951 261.085 27.5423C260.684 27.858 260.263 28.1461 259.824 28.4047C259.609 28.5552 259.427 28.7475 259.212 28.898C259.212 28.898 259.107 28.9306 259.06 28.9454C258.992 28.9502 258.927 28.9705 258.869 29.0046C258.353 29.3792 257.879 29.8072 257.453 30.2813C257.362 30.3932 256.681 30.7617 256.602 30.9119C256.523 31.062 256.064 31.0682 256.052 31.166Z" fill="url(#paint8_linear_2043_236)"/>
<path d="M52.5216 194.876C51.1637 194.576 49.9765 193.832 49.1885 192.786C49.0267 192.591 48.7678 192.318 48.6707 192.191L48.3147 191.761C48.0666 191.468 47.8725 191.243 47.6351 190.99C47.3978 190.736 46.8477 190.365 46.4917 190.013L46.3192 189.866L46.1897 189.74C46.1377 189.683 46.0799 189.63 46.0171 189.583C45.8781 189.454 45.6965 189.368 45.4994 189.339C45.0463 189.339 44.9492 189.779 44.8629 190.189C44.8629 190.238 44.8629 190.511 44.8629 190.677C44.8629 190.843 44.8629 191.068 44.8629 191.263C44.8646 191.646 44.9007 192.028 44.9708 192.406C45.126 193.289 45.4202 194.147 45.8445 194.954C45.9956 195.199 45.8445 195.452 45.316 195.56C44.5207 195.688 43.7078 195.442 43.1586 194.906C42.8924 194.635 42.6473 194.348 42.4251 194.046C42.2492 193.737 42.1186 193.409 42.0368 193.07C41.873 192.468 41.7718 191.853 41.7347 191.234L41.67 190.306C41.6548 189.807 41.6764 189.308 41.7347 188.812C41.8942 187.929 42.4382 187.141 43.2449 186.624C44.2394 186.114 45.4447 186.071 46.481 186.507C47.0279 186.713 47.5487 186.972 48.0343 187.279C48.4167 187.497 48.7776 187.746 49.1129 188.021C49.7636 188.563 50.366 189.151 50.9143 189.779C51.5616 190.482 51.5723 190.589 51.8636 190.882C52.0094 191.069 52.2232 191.204 52.4677 191.263C52.7208 191.269 52.9537 191.139 53.0609 190.931C53.1698 190.788 53.2603 190.634 53.3306 190.472C53.3796 190.383 53.4228 190.292 53.46 190.199L53.6326 189.798L54.474 187.845C54.8766 186.714 55.408 185.624 56.0597 184.593C56.2197 184.35 56.4 184.118 56.599 183.9C56.8557 183.58 57.2451 183.368 57.6777 183.314C58.07 183.39 58.4231 183.582 58.6809 183.861C58.8216 183.974 58.9515 184.098 59.0692 184.232C59.2376 184.461 59.3345 184.728 59.3497 185.003C59.4519 185.289 59.4519 185.596 59.3497 185.882C58.5946 187.323 57.9249 188.8 57.3433 190.306L56.8363 191.429C56.7204 191.764 56.5762 192.091 56.4049 192.406C56.2703 192.724 56.0927 193.025 55.8763 193.304C55.6884 193.576 55.4637 193.825 55.2075 194.046L54.8408 194.359L54.4201 194.593C53.8336 194.892 53.1587 195.019 52.4892 194.954L52.5216 194.876Z" fill="url(#paint9_linear_2043_236)"/>
<path d="M38.1317 206.673C34.4071 202.657 31.0349 198.383 28.046 193.89C24.8873 189.227 22.7963 184.036 21.8975 178.627C21.2181 174.532 21.6286 170.351 23.0949 166.429C24.5468 162.931 27.0272 159.858 30.2681 157.543C33.4905 155.3 37.314 153.874 41.3462 153.412C45.2537 152.947 49.2254 153.227 53.0068 154.232C56.8105 155.257 60.2631 157.142 63.0385 159.711C65.3981 161.975 67.3134 164.587 68.7016 167.435C70.0417 170.185 71.0681 173.051 71.7651 175.99C72.2123 177.879 72.5079 179.795 72.6496 181.722C72.82 183.603 72.8776 185.49 72.8222 187.376C72.7663 191.116 72.471 194.85 71.9377 198.558C71.5925 200.853 70.859 200.511 70.0608 198.5C68.9913 195.329 68.3821 192.047 68.2486 188.734C68.1731 186.878 68.0113 185.033 67.8818 183.226C67.7659 181.461 67.539 179.704 67.2022 177.962C66.4807 174.531 65.2506 171.203 63.5455 168.07C62.6951 166.594 61.6755 165.203 60.5036 163.92C59.3429 162.699 58.0038 161.628 56.5233 160.736C54.9924 159.875 53.3515 159.187 51.6368 158.685C49.8173 158.192 47.9436 157.881 46.0493 157.757C41.52 157.383 37.0054 158.6 33.4394 161.156C29.9317 163.835 27.6735 167.617 27.1184 171.742C26.7905 174.066 26.8305 176.42 27.237 178.734C27.6788 181.096 28.4021 183.408 29.3944 185.628C31.6071 190.159 34.4334 194.424 37.8081 198.324C39.5772 200.453 41.4217 202.542 43.3202 204.623L48.6489 210.414C48.8215 210.589 48.9617 210.785 49.1451 210.941C49.3285 211.097 49.6413 210.882 49.8678 210.804C50.0943 210.726 50.4611 210.501 50.7523 210.335L52.3488 209.359C53.4275 208.695 54.5709 208.021 55.725 207.406C56.2967 207.083 56.89 206.761 57.4833 206.429L58.4325 205.96C58.7993 205.785 59.1121 205.628 59.5759 205.433C61.1829 204.709 62.8872 204.177 64.6458 203.851C66.1274 203.588 67.6514 203.588 69.1331 203.851C70.5354 204.079 71.8352 204.669 72.8761 205.55C73.4039 206.008 73.6394 206.677 73.5018 207.328C73.3452 207.845 73.0654 208.325 72.682 208.734C71.8259 209.706 70.8153 210.559 69.6832 211.263C68.6045 211.947 67.3425 212.63 66.0912 213.314L64.2682 214.29L63.5779 214.701L62.9846 215.072C62.2175 215.547 61.4958 216.079 60.8272 216.664C60.2695 217.117 59.8247 217.673 59.522 218.294L59.4573 218.47L57.904 218.011C57.8802 218.001 57.8523 218.001 57.8285 218.011C57.7314 218.011 57.8285 218.011 57.8285 218.011C57.8285 218.011 57.8285 218.011 57.8285 217.943L57.9148 217.787C57.958 217.684 57.9799 217.574 57.9795 217.464C58.0412 217.142 58.0701 216.815 58.0658 216.488H58.2923C58.6699 216.429 59.1337 216.322 59.5867 216.214L62.4452 215.492C65.1527 214.828 68.7987 213.91 71.1394 214.085C71.7835 214.116 72.421 214.218 73.0379 214.388C73.6183 214.574 74.1479 214.871 74.5912 215.257C74.7604 215.506 74.8877 215.776 74.9688 216.058C75.0108 216.284 75.0108 216.515 74.9688 216.742C74.8759 217.349 74.6679 217.937 74.3539 218.48C73.977 219.13 73.5054 219.731 72.9516 220.267C71.7708 221.309 70.5012 222.266 69.1547 223.128L68.4319 223.617C68.2594 223.743 68.0793 223.86 67.8926 223.968C67.6445 224.095 67.418 224.203 67.2022 224.29C66.8005 224.449 66.3858 224.58 65.9618 224.681C65.5737 224.813 65.21 224.997 64.8831 225.228C64.6242 225.384 64.3761 225.374 64.1819 225.023C63.9663 224.477 63.9663 223.88 64.1819 223.333C64.3112 222.959 64.4773 222.597 64.6781 222.249C64.7807 222.055 64.8959 221.865 65.0233 221.683L65.1204 221.537C65.1204 221.537 65.1204 221.537 65.1204 221.468V221.351C65.2378 221.082 65.3822 220.824 65.5519 220.58C65.6576 220.438 65.7479 220.288 65.8215 220.13C65.8328 220.069 65.8328 220.006 65.8215 219.945C65.831 219.9 65.8186 219.854 65.7875 219.819C65.7564 219.783 65.7098 219.761 65.6597 219.759C65.247 219.753 64.839 219.84 64.4732 220.013L64.0848 220.169L63.9338 220.248H63.8691L63.7073 220.306L61.3773 220.873C60.452 221.101 59.5117 221.277 58.562 221.4H57.9795H57.5049C57.2533 221.388 57.0038 221.352 56.7606 221.292C56.5543 221.249 56.3523 221.19 56.1565 221.117L55.8437 220.99C55.5845 220.858 55.3422 220.701 55.121 220.521C54.1983 219.792 53.7507 218.687 53.9344 217.591C53.9344 217.464 53.9344 217.328 53.9992 217.21C54.0639 217.093 54.0962 216.917 54.0854 216.957V216.898V216.781L54.1933 216.537C54.3117 216.234 54.4635 215.943 54.6464 215.667C54.7938 215.403 54.9671 215.152 55.1641 214.915C55.802 214.097 56.5523 213.355 57.397 212.708C58.1521 212.123 58.8964 211.605 59.6407 211.126L60.7194 210.501L61.0322 210.306L60.7517 210.443L60.2987 210.667C59.9103 210.863 59.522 211.078 59.1337 211.283C57.5804 212.142 56.0379 213.099 54.3659 214.105L53.7295 214.486L53.2009 214.798L52.5861 215.14C51.8015 215.592 50.9571 215.953 50.0727 216.214C49.2503 216.419 48.3819 216.419 47.5594 216.214C47.3592 216.171 47.1738 216.084 47.0201 215.96L46.5023 215.638L45.4236 214.994L37.765 206.791L38.1317 206.673Z" fill="url(#paint10_linear_2043_236)"/>
<path d="M48.0553 184.407C48.9923 184.958 49.8478 185.614 50.601 186.361L51.0648 186.82V186.907L51.1835 187.103L51.4855 187.601C51.5394 187.669 51.6149 187.874 51.7012 187.796C51.7532 187.742 51.7935 187.679 51.8199 187.611C51.917 187.386 51.8846 187.044 52.014 186.81C52.014 186.81 52.014 186.81 52.014 186.702L52.1327 186.312L52.4132 185.452L52.5857 184.974L52.8662 184.368C53.067 183.947 53.3126 183.545 53.5997 183.167C54.0721 182.476 54.7483 181.918 55.5521 181.556C56.3487 181.213 57.2506 181.127 58.1086 181.312C58.9776 181.488 59.7876 181.85 60.4709 182.366C60.8136 182.631 61.1412 182.911 61.4525 183.206C61.7114 183.509 61.9164 183.831 62.1429 184.183C62.7957 185.276 63.1923 186.48 63.3079 187.718C63.3834 188.236 63.3834 188.695 63.4373 189.222C63.4912 189.749 63.4373 190.198 63.4373 190.687C63.4492 191.629 63.406 192.571 63.3079 193.509C63.1784 194.7 63.0166 195.872 62.8117 197.025C62.7038 197.601 62.3802 198.148 62.2615 198.714C62.1429 199.28 61.9919 199.847 61.884 200.413C61.7761 200.98 61.3878 201.029 60.9779 200.413C60.7156 199.993 60.5057 199.548 60.3523 199.085C60.2336 198.802 60.1905 198.509 60.0718 198.187C59.9212 197.868 59.7916 197.542 59.6835 197.21C59.5325 195.989 59.5648 194.827 59.4785 193.675L59.3599 191.986C59.3599 191.439 59.3599 190.892 59.2736 190.364C59.2206 189.403 59.0469 188.449 58.7558 187.523C58.707 187.327 58.6346 187.137 58.5401 186.956C58.4646 186.82 58.3783 186.575 58.3351 186.517C58.2057 186.282 58.1841 186.156 58.0978 185.999C57.9875 185.793 57.7673 185.653 57.5153 185.628C57.266 185.668 57.0554 185.818 56.9544 186.029C56.8929 186.135 56.8424 186.246 56.8034 186.361C56.7279 186.546 56.6092 186.859 56.5122 187.171L56.3503 187.679L56.113 188.558L55.6924 190.325C55.5096 191.352 55.0706 192.327 54.4087 193.177C54.2832 193.316 54.1462 193.447 53.9988 193.568C53.8369 193.708 53.6412 193.811 53.4271 193.87C53.2436 193.9 53.0546 193.865 52.8986 193.773C52.7475 193.695 52.6289 193.665 52.4455 193.558L51.917 193.265L51.2913 192.825L51.1295 192.718L50.9569 192.513L50.6225 192.103L49.9538 191.292L49.285 190.452L48.5946 189.73C48.476 189.613 48.3681 189.486 48.2386 189.378L48.0121 189.154C47.8611 189.027 47.7317 188.88 47.5807 188.763C47.0227 188.259 46.3779 187.84 45.6714 187.523C45.4216 187.419 45.1416 187.392 44.8732 187.445C44.6082 187.525 44.3755 187.674 44.2044 187.874C43.933 188.212 43.8135 188.631 43.87 189.046C43.9228 189.68 44.0829 190.302 44.3446 190.892C44.9189 192.211 45.6764 193.458 46.599 194.603C48.11 196.372 49.804 198.007 51.6581 199.486C52.0572 199.827 52.4779 200.13 52.8662 200.462C54.3332 201.741 54.6137 202.279 54.2361 203.245C54.1664 203.467 54.0836 203.686 53.988 203.9C53.6105 204.564 52.4994 204.476 51.205 203.626C47.198 200.942 43.8301 197.555 41.3027 193.665C40.7655 192.815 40.3315 191.915 40.0083 190.98C39.8344 190.43 39.7117 189.868 39.6415 189.3C39.6133 188.926 39.6133 188.551 39.6415 188.177C39.6767 187.782 39.7636 187.392 39.9004 187.015C39.9593 186.825 40.0313 186.639 40.1162 186.458L40.429 185.941C40.6359 185.591 40.8856 185.263 41.1733 184.964C41.4753 184.71 41.7989 184.456 42.1333 184.222C42.4777 184.019 42.8382 183.839 43.212 183.685C44.8613 183.243 46.6409 183.463 48.0984 184.29L48.0553 184.407Z" fill="url(#paint11_linear_2043_236)"/>
<path d="M18.219 160.882C18.5534 160.882 18.4563 161.302 18.0896 161.957C17.9019 162.257 17.653 162.522 17.3561 162.738C17.1393 162.817 16.9156 162.879 16.6873 162.923C16.5794 162.923 15.2958 162.543 14.8212 162.455C14.3952 162.352 13.9907 162.187 13.6238 161.966C12.8688 161.556 12.0813 161.175 11.3047 160.775C11.1285 160.687 10.9771 160.563 10.8624 160.414C10.4325 159.917 9.86755 159.53 9.22281 159.291C9.11621 159.214 8.97392 159.192 8.84527 159.232C8.08207 159.076 7.37845 158.739 6.80656 158.255C6.50452 157.679 6.12699 157.201 5.78181 156.673C5.72787 156.605 5.63079 156.595 5.66315 156.42C5.74945 156.029 5.56607 155.97 5.43663 155.834C5.23978 155.625 5.10928 155.372 5.05909 155.101C5.03076 154.92 5.03076 154.736 5.05909 154.554C5.05909 154.388 5.37191 154.115 5.43663 154.095C5.50135 154.076 5.67394 153.851 5.78181 153.714C5.81517 153.662 5.85497 153.613 5.90046 153.568C5.90046 153.568 6.41823 153.509 6.97915 153.421C7.33671 153.373 7.70027 153.373 8.05783 153.421L8.39222 153.548L9.11494 153.802L10.3554 154.203C10.4741 154.203 10.5172 154.379 10.5927 154.496C10.6682 154.613 12.1892 155.199 12.2431 155.248C12.502 155.472 12.8795 155.55 12.9658 156.009C12.9658 156.097 13.0521 156.117 13.1169 156.156C13.5922 156.475 14.0264 156.842 14.4113 157.25C14.6378 157.445 14.929 157.582 15.1771 157.757C15.1771 157.757 15.2419 157.855 15.2742 157.904C15.3066 157.953 15.3497 158.041 15.4145 158.07C15.9879 158.519 16.5933 158.933 17.2266 159.31C17.3884 159.388 17.8307 160.14 18.0141 160.218C18.1975 160.296 18.0896 160.892 18.219 160.882Z" fill="url(#paint12_linear_2043_236)"/>
<path d="M26.0396 153.763C26.2877 153.959 25.8778 154.183 25.1011 154.378C24.7468 154.446 24.3837 154.469 24.0224 154.447C23.7959 154.349 23.5802 154.261 23.4184 154.173C23.2566 154.085 22.7604 153.197 22.5015 152.855C22.2786 152.559 22.1177 152.228 22.0269 151.878C21.8111 151.205 21.5415 150.541 21.2826 149.847C21.2444 149.686 21.2444 149.52 21.2826 149.359C21.3534 148.788 21.2371 148.21 20.9482 147.699C20.9482 147.611 20.9482 147.513 20.7217 147.455C20.2898 146.92 20.0455 146.281 20.0205 145.619C20.2362 145.043 20.3441 144.486 20.5059 143.929C20.5059 143.851 20.5059 143.783 20.6138 143.685C20.8435 143.6 20.9713 143.377 20.9158 143.158C20.9392 142.902 21.0359 142.656 21.1963 142.445C21.3206 142.31 21.4618 142.189 21.617 142.084C21.8133 142.005 22.0312 141.981 22.2426 142.015C22.4044 142.103 22.6093 142.015 22.7927 142.015H22.9869C22.9869 142.015 23.3968 142.279 23.8283 142.523C24.0957 142.682 24.3357 142.876 24.5402 143.099C24.5402 143.099 24.5941 143.207 24.6696 143.363L24.9825 143.919C25.209 144.33 25.5002 144.74 25.5434 144.837C25.5865 144.935 25.5434 145.043 25.5434 145.15C25.5434 145.257 26.1474 146.488 26.1582 146.546C26.1582 146.839 26.3847 147.093 26.1043 147.455C26.0717 147.51 26.0717 147.576 26.1043 147.63C26.2368 148.136 26.2984 148.654 26.2877 149.173C26.3249 149.433 26.379 149.691 26.4495 149.945C26.4598 149.997 26.4598 150.049 26.4495 150.101C26.4291 150.165 26.4291 150.233 26.4495 150.296C26.5286 150.933 26.6438 151.565 26.7946 152.191C26.8486 152.337 26.5681 153.099 26.6436 153.265C26.7191 153.431 25.9533 153.695 26.0396 153.763Z" fill="url(#paint13_linear_2043_236)"/>
<path d="M16.1805 170.785C16.5041 170.628 16.6983 171.048 16.7738 171.761C16.7708 172.095 16.7013 172.426 16.5688 172.738C16.3963 172.914 16.2345 173.089 16.0834 173.216C15.4501 173.396 14.8272 173.605 14.2173 173.841C13.8058 174.01 13.37 174.125 12.9229 174.183C12.0384 174.349 11.1538 174.574 10.237 174.798C10.027 174.837 9.81051 174.837 9.60054 174.798C8.87793 174.679 8.1331 174.736 7.44318 174.964C7.31374 174.964 7.18429 174.964 7.098 175.16C6.33971 175.526 5.49758 175.726 4.6386 175.746C3.90509 175.541 3.18238 175.443 2.48123 175.296C2.38415 175.296 2.28707 175.296 2.16841 175.179C1.90953 174.818 1.70458 174.906 1.48884 174.886C1.16729 174.834 0.855172 174.742 0.561175 174.613C0.386174 174.504 0.229878 174.372 0.0973406 174.222C-0.0428883 174.095 0.000259079 173.646 0.0326196 173.587C0.0649801 173.529 0.0326196 173.216 0.0326196 173.031C0.0326196 172.845 0.0326196 172.884 0.0326196 172.826C0.263192 172.57 0.508013 172.326 0.766125 172.093C0.990727 171.816 1.26839 171.578 1.58592 171.39L1.95268 171.273L2.72933 171L3.9806 170.521C4.09926 170.462 4.26106 170.521 4.40129 170.521C4.54152 170.521 6.25663 169.906 6.34292 169.906C6.74203 169.906 7.10879 169.681 7.57262 169.955C7.65891 170.013 7.73442 169.955 7.82072 169.955C8.52848 169.813 9.25664 169.773 9.97808 169.837C10.3448 169.837 10.7008 169.789 11.0568 169.779C11.1215 169.779 11.197 169.779 11.2617 169.837C11.3459 169.864 11.4326 169.883 11.5206 169.896C12.4051 169.828 13.2896 169.984 14.185 169.896C14.4007 169.896 15.3823 170.287 15.6196 170.277C15.8569 170.267 16.0619 170.843 16.1805 170.785Z" fill="url(#paint14_linear_2043_236)"/>
<path d="M241.5 368.052C240.421 368.383 239.268 368.383 238.19 368.052C237.698 367.91 237.306 367.536 237.14 367.052C236.437 364.821 236.027 362.508 235.92 360.172C235.78 358.172 236.47 356.352 236.75 354.472C237.02 352.852 237.31 351.232 237.66 349.612C237.83 348.802 238.01 348.002 238.23 347.202C238.412 346.391 238.636 345.59 238.9 344.802C239.25 343.882 239.7 342.992 240.06 342.082C240.23 341.642 240.34 341.182 240.5 340.732L240.73 340.052L241.06 339.422C241.14 339.282 241.06 339.082 241.35 339.022C242 338.872 243.58 339.522 244.65 340.312C244.89 340.502 245.31 340.762 245.3 340.832C245.09 341.492 247.2 342.972 246.9 343.562C246.39 344.712 246.64 346.142 246.63 347.442C246.564 347.939 246.401 348.418 246.15 348.852C245.84 349.422 245.3 349.932 245.01 350.522C244.587 351.565 244.253 352.642 244.01 353.742C243.566 355.587 243.232 357.457 243.01 359.342C242.65 361.342 242.41 363.242 242.3 364.672C242.19 366.102 242.23 366.982 242.21 367.042C242.142 367.214 242.04 367.37 241.91 367.502C241.751 367.668 241.613 367.852 241.5 368.052Z" fill="url(#paint15_linear_2043_236)"/>
<path d="M234.92 409.512C231.92 409.782 230.98 409.232 230.73 408.642C230.253 407.646 229.842 406.621 229.5 405.572C229.319 405.075 229.169 404.567 229.05 404.052C228.99 403.532 228.93 403.052 228.92 402.492C228.976 400.745 229.177 399.006 229.52 397.292C229.65 395.823 229.867 394.364 230.17 392.922C230.47 391.492 230.76 390.072 231.17 388.672C231.47 387.862 231.82 387.072 232.07 386.252C232.163 385.837 232.304 385.434 232.49 385.052L232.76 384.492C232.796 384.392 232.85 384.301 232.92 384.222L233.2 383.982C233.33 383.882 233.39 383.742 233.64 383.682C234.524 383.559 235.423 383.75 236.18 384.222C236.36 384.332 236.7 384.492 236.7 384.562C236.62 385.172 238.65 386.232 238.64 386.882C238.609 387.493 238.632 388.105 238.71 388.712C238.82 389.332 238.98 389.972 239.05 390.582C239.077 391.047 238.984 391.512 238.78 391.932C238.53 392.482 238.09 392.932 237.84 393.542C237.55 394.526 237.326 395.528 237.17 396.542C236.804 398.193 236.523 399.862 236.33 401.542C236.24 402.412 236.16 403.272 236.13 404.062C236.1 404.852 235.9 405.592 235.84 406.222C235.78 406.852 235.73 407.382 235.71 407.752C235.69 408.122 235.71 408.362 235.71 408.402C235.474 408.791 235.21 409.162 234.92 409.512Z" fill="url(#paint16_linear_2043_236)"/>
<path d="M271.49 380.612C270.73 381.412 270.24 382.032 269.9 382.432C269.684 382.739 269.391 382.984 269.05 383.142C268.662 383.293 268.26 383.404 267.85 383.472L266.58 383.772C265.71 383.982 264.83 384.182 263.92 384.362C263.535 384.443 263.143 384.49 262.75 384.502C262.36 384.502 261.96 384.502 261.56 384.452C260.76 384.452 259.95 384.322 259.13 384.322C257.73 384.322 256.3 384.322 254.84 384.322C253.36 384.207 251.888 384.01 250.43 383.732C249.55 383.522 248.7 383.302 247.8 383.072C247.39 382.922 246.97 382.812 246.54 382.692C246.11 382.572 245.69 382.402 245.28 382.232C245.14 382.232 244.94 382.232 244.88 382.012C244.71 381.392 245.35 379.682 246.09 378.482C246.26 378.212 246.51 377.742 246.57 377.752C247.16 377.882 248.41 375.632 248.92 375.752C249.44 375.832 249.97 375.832 250.49 375.752C251.04 375.662 251.59 375.512 252.11 375.472C252.526 375.434 252.945 375.499 253.33 375.662C253.82 375.892 254.33 376.292 254.85 376.492C255.787 376.736 256.739 376.916 257.7 377.032C259.13 377.222 260.94 377.362 262.77 377.492C264.6 377.622 266.43 378.012 267.91 378.322C268.26 378.392 268.61 378.482 268.91 378.572C269.196 378.621 269.473 378.715 269.73 378.852C270.21 379.112 270.48 379.282 270.53 379.312C270.902 379.704 271.225 380.14 271.49 380.612Z" fill="url(#paint17_linear_2043_236)"/>
<path d="M205 372.382C205.045 371.58 205.228 370.792 205.54 370.052C205.704 369.654 205.996 369.323 206.37 369.112C206.837 368.869 207.335 368.691 207.85 368.582L209.34 368.212C210.33 367.987 211.331 367.816 212.34 367.702C213.188 367.609 214.046 367.653 214.88 367.832C215.71 367.972 216.54 368.142 217.38 368.242C218.82 368.412 220.27 368.622 221.72 368.842C223.166 369.148 224.595 369.532 226 369.992L228.5 370.902C228.88 371.082 229.28 371.242 229.68 371.392C230.08 371.542 230.48 371.732 230.87 371.922C231 371.982 231.19 371.922 231.23 372.162C231.35 372.792 230.61 374.462 229.79 375.612C229.61 375.872 229.33 376.322 229.27 376.302C228.68 376.132 227.27 378.302 226.71 378.102C226.173 377.974 225.622 377.916 225.07 377.932C224.49 377.932 223.9 378.032 223.36 378.002C222.927 377.992 222.503 377.871 222.13 377.652C221.64 377.362 221.19 376.902 220.68 376.652C219.786 376.261 218.863 375.94 217.92 375.692C216.308 375.277 214.676 374.943 213.03 374.692C211.3 374.312 209.6 373.952 208.31 373.772C207.783 373.72 207.262 373.627 206.75 373.492C206.523 373.423 206.299 373.343 206.08 373.252C205.75 373.052 205.48 372.712 205 372.382Z" fill="url(#paint18_linear_2043_236)"/>
<path d="M395.208 196.381C395.208 196.381 397.518 209.091 398.588 209.381C400.748 209.861 406.878 207.551 407.748 206.471C408.848 205.041 405.658 193.111 405.928 193.041C408.238 192.041 413.928 188.221 414.928 185.961C416.168 183.181 393.928 155.461 388.388 154.961C384.808 154.651 381.248 193.311 382.448 196.861C383.148 198.881 395.418 196.161 395.208 196.381Z" fill="url(#paint19_linear_2043_236)"/>
<path d="M361.278 146.501C360.968 146.591 360.948 146.121 361.068 145.351C361.149 144.992 361.299 144.653 361.508 144.351C361.708 144.22 361.919 144.107 362.138 144.011C362.258 143.961 363.798 144.141 364.358 144.181C364.87 144.228 365.37 144.359 365.838 144.571C366.805 144.935 367.742 145.376 368.638 145.891C368.836 146.018 369.009 146.181 369.148 146.371C369.627 147.008 370.233 147.539 370.928 147.931C371.048 147.991 371.128 148.101 371.328 148.061C371.528 148.021 373.328 149.411 373.428 149.711C373.718 150.481 373.968 151.131 374.228 151.831C374.228 151.931 374.368 151.981 374.288 152.161C374.108 152.581 374.288 152.701 374.388 152.891C374.518 153.173 374.606 153.473 374.648 153.781C374.638 153.986 374.598 154.188 374.528 154.381C374.528 154.561 374.058 154.781 373.988 154.781C373.918 154.781 373.658 154.981 373.498 155.101C373.446 155.15 373.389 155.194 373.328 155.231C372.65 155.117 371.982 154.954 371.328 154.741L371.038 154.541L370.388 154.121C369.888 153.851 369.388 153.551 369.288 153.491C369.188 153.431 369.158 153.281 369.108 153.151C369.058 153.021 367.638 152.261 367.588 152.221C367.348 151.981 366.988 151.891 366.938 151.391C366.938 151.291 366.858 151.261 366.798 151.231C366.297 150.88 365.832 150.482 365.408 150.041C365.168 149.851 364.908 149.691 364.658 149.511C364.616 149.464 364.582 149.41 364.558 149.351C364.526 149.278 364.478 149.213 364.418 149.161C363.832 148.729 363.206 148.354 362.548 148.041C362.388 147.991 361.838 147.241 361.628 147.191C361.418 147.141 361.408 146.471 361.278 146.501Z" fill="url(#paint20_linear_2043_236)"/>
<path d="M382.348 131.761C382.068 131.651 382.408 131.321 383.048 130.821C383.351 130.603 383.689 130.441 384.048 130.341C384.296 130.364 384.541 130.414 384.778 130.491C384.908 130.541 385.928 131.651 386.318 132.021C386.654 132.353 386.904 132.761 387.048 133.211C387.368 134.081 387.718 134.921 387.998 135.791C388.065 135.987 388.082 136.196 388.048 136.401C387.971 137.104 388.081 137.814 388.368 138.461C388.368 138.571 388.368 138.691 388.598 138.761C389.041 139.439 389.281 140.23 389.288 141.041C389.068 141.711 388.788 142.371 388.558 143.041C388.558 143.141 388.558 143.221 388.398 143.321C387.968 143.551 388.048 143.731 387.998 143.931C387.872 144.215 387.718 144.486 387.538 144.741C387.384 144.855 387.22 144.955 387.048 145.041C386.848 145.116 386.628 145.116 386.428 145.041C386.288 144.931 386.068 145.041 385.888 145.041C385.825 145.046 385.761 145.046 385.698 145.041C385.638 145.041 385.308 144.701 384.878 144.381C384.553 144.199 384.267 143.955 384.038 143.661C383.998 143.554 383.952 143.451 383.898 143.351L383.588 142.691C383.46 142.47 383.343 142.243 383.238 142.011C383.2 141.87 383.15 141.733 383.088 141.601C383.028 141.491 383.088 141.361 383.178 141.241C383.268 141.121 382.628 139.701 382.618 139.641C382.618 139.311 382.418 139.021 382.738 138.641C382.779 138.58 382.779 138.501 382.738 138.441C382.621 137.879 382.574 137.304 382.598 136.731C382.555 136.447 382.492 136.166 382.408 135.891C382.408 135.891 382.408 135.771 382.408 135.711C382.427 135.642 382.427 135.569 382.408 135.501C382.303 134.821 382.139 134.152 381.918 133.501C381.918 133.361 382.078 132.501 381.978 132.361C381.878 132.221 382.458 131.811 382.348 131.761Z" fill="url(#paint21_linear_2043_236)"/>
<path d="M398.628 146.261C398.778 146.591 398.238 146.641 397.318 146.591C396.895 146.54 396.485 146.411 396.108 146.211C395.922 146.001 395.758 145.773 395.618 145.531C395.538 145.381 395.618 143.631 395.538 143.021C395.523 142.46 395.607 141.901 395.788 141.371C396.077 140.31 396.448 139.274 396.898 138.271C396.999 138.046 397.145 137.845 397.328 137.681C397.938 137.088 398.398 136.357 398.668 135.551C398.718 135.421 398.808 135.311 398.668 135.111C398.858 134.173 399.277 133.297 399.888 132.561C400.568 132.091 401.138 131.561 401.788 131.101C401.878 131.031 401.878 130.901 402.118 130.941C402.414 131.047 402.742 130.919 402.888 130.641C403.135 130.384 403.431 130.18 403.758 130.041C404.009 129.987 404.268 129.987 404.518 130.041C404.768 130.041 405.288 130.631 405.318 130.721C405.418 130.981 405.758 131.131 405.998 131.331L406.258 131.541C406.339 131.915 406.376 132.298 406.368 132.681C406.42 133.056 406.42 133.436 406.368 133.811L406.198 134.161L405.848 134.911C405.608 135.491 405.358 136.091 405.328 136.231C405.298 136.371 405.128 136.441 404.998 136.521C404.868 136.601 404.328 138.381 404.288 138.451C404.058 138.771 404.018 139.191 403.458 139.351C403.348 139.351 403.338 139.461 403.308 139.531C403.005 140.154 402.633 140.741 402.198 141.281C402.024 141.582 401.874 141.896 401.748 142.221C401.748 142.281 401.638 142.311 401.578 142.361C401.518 142.411 401.428 142.471 401.398 142.541C400.941 143.233 400.555 143.97 400.248 144.741C400.188 144.921 399.388 145.581 399.358 145.801C399.328 146.021 398.568 146.131 398.628 146.261Z" fill="url(#paint22_linear_2043_236)"/>
<defs>
<linearGradient id="paint0_linear_2043_236" x1="588.5" y1="78.0004" x2="574.347" y2="356.001" gradientUnits="userSpaceOnUse">
<stop offset="0.196738" stop-color="#ABA56E" stop-opacity="0.55"/>
<stop offset="0.944257" stop-color="#FBFBFB"/>
</linearGradient>
<linearGradient id="paint1_linear_2043_236" x1="186.386" y1="68.2157" x2="215.855" y2="59.7099" gradientUnits="userSpaceOnUse">
<stop stop-color="#ABA56E" stop-opacity="0.55"/>
<stop offset="0.909729" stop-color="#FBFBFB"/>
</linearGradient>
<linearGradient id="paint2_linear_2043_236" x1="196.814" y1="63.9689" x2="214.614" y2="58.652" gradientUnits="userSpaceOnUse">
<stop stop-color="#ABA56E" stop-opacity="0.55"/>
<stop offset="0.909729" stop-color="#FBFBFB"/>
</linearGradient>
<linearGradient id="paint3_linear_2043_236" x1="141.073" y1="41.7774" x2="250.785" y2="11.2228" gradientUnits="userSpaceOnUse">
<stop stop-color="#ABA56E" stop-opacity="0.55"/>
<stop offset="0.909729" stop-color="#FBFBFB"/>
</linearGradient>
<linearGradient id="paint4_linear_2043_236" x1="183.863" y1="92.0203" x2="276.991" y2="74.9094" gradientUnits="userSpaceOnUse">
<stop stop-color="#ABA56E" stop-opacity="0.55"/>
<stop offset="0.909729" stop-color="#FBFBFB"/>
</linearGradient>
<linearGradient id="paint5_linear_2043_236" x1="243.697" y1="62.7855" x2="267.232" y2="56.242" gradientUnits="userSpaceOnUse">
<stop stop-color="#ABA56E" stop-opacity="0.55"/>
<stop offset="0.909729" stop-color="#FBFBFB"/>
</linearGradient>
<linearGradient id="paint6_linear_2043_236" x1="216.62" y1="52.8275" x2="268.286" y2="39.1879" gradientUnits="userSpaceOnUse">
<stop stop-color="#ABA56E" stop-opacity="0.55"/>
<stop offset="0.909729" stop-color="#FBFBFB"/>
</linearGradient>
<linearGradient id="paint7_linear_2043_236" x1="231.286" y1="5.73817" x2="242.012" y2="2.54773" gradientUnits="userSpaceOnUse">
<stop stop-color="#ABA56E" stop-opacity="0.55"/>
<stop offset="0.909729" stop-color="#FBFBFB"/>
</linearGradient>
<linearGradient id="paint8_linear_2043_236" x1="241.592" y1="26.8564" x2="269.169" y2="20.1342" gradientUnits="userSpaceOnUse">
<stop stop-color="#ABA56E" stop-opacity="0.55"/>
<stop offset="0.909729" stop-color="#FBFBFB"/>
</linearGradient>
<linearGradient id="paint9_linear_2043_236" x1="26.2827" y1="181.122" x2="64.75" y2="183.02" gradientUnits="userSpaceOnUse">
<stop stop-color="#ABA56E" stop-opacity="0.55"/>
<stop offset="0.909729" stop-color="#FBFBFB"/>
</linearGradient>
<linearGradient id="paint10_linear_2043_236" x1="-24.6886" y1="140.321" x2="91.2205" y2="143.249" gradientUnits="userSpaceOnUse">
<stop stop-color="#ABA56E" stop-opacity="0.55"/>
<stop offset="0.909729" stop-color="#FBFBFB"/>
</linearGradient>
<linearGradient id="paint11_linear_2043_236" x1="18.9721" y1="177.09" x2="70.6691" y2="178.909" gradientUnits="userSpaceOnUse">
<stop stop-color="#ABA56E" stop-opacity="0.55"/>
<stop offset="0.909729" stop-color="#FBFBFB"/>
</linearGradient>
<linearGradient id="paint12_linear_2043_236" x1="-6.55571" y1="151.683" x2="22.4405" y2="153.071" gradientUnits="userSpaceOnUse">
<stop stop-color="#ABA56E" stop-opacity="0.55"/>
<stop offset="0.909729" stop-color="#FBFBFB"/>
</linearGradient>
<linearGradient id="paint13_linear_2043_236" x1="14.1475" y1="139.777" x2="28.8648" y2="140.051" gradientUnits="userSpaceOnUse">
<stop stop-color="#ABA56E" stop-opacity="0.55"/>
<stop offset="0.909729" stop-color="#FBFBFB"/>
</linearGradient>
<linearGradient id="paint14_linear_2043_236" x1="-14.5275" y1="168.714" x2="21.5582" y2="172.174" gradientUnits="userSpaceOnUse">
<stop stop-color="#ABA56E" stop-opacity="0.55"/>
<stop offset="0.909729" stop-color="#FBFBFB"/>
</linearGradient>
<linearGradient id="paint15_linear_2043_236" x1="226.35" y1="333.771" x2="250.289" y2="334.078" gradientUnits="userSpaceOnUse">
<stop stop-color="#ABA56E" stop-opacity="0.55"/>
<stop offset="0.909729" stop-color="#FBFBFB"/>
</linearGradient>
<linearGradient id="paint16_linear_2043_236" x1="220.143" y1="379.016" x2="242.142" y2="379.31" gradientUnits="userSpaceOnUse">
<stop stop-color="#ABA56E" stop-opacity="0.55"/>
<stop offset="0.909729" stop-color="#FBFBFB"/>
</linearGradient>
<linearGradient id="paint17_linear_2043_236" x1="221.782" y1="373.848" x2="279.036" y2="379.603" gradientUnits="userSpaceOnUse">
<stop stop-color="#ABA56E" stop-opacity="0.55"/>
<stop offset="0.909729" stop-color="#FBFBFB"/>
</linearGradient>
<linearGradient id="paint18_linear_2043_236" x1="182.272" y1="365.788" x2="238.833" y2="370.629" gradientUnits="userSpaceOnUse">
<stop stop-color="#ABA56E" stop-opacity="0.55"/>
<stop offset="0.909729" stop-color="#FBFBFB"/>
</linearGradient>
<linearGradient id="paint19_linear_2043_236" x1="353.831" y1="145.235" x2="424.942" y2="146.694" gradientUnits="userSpaceOnUse">
<stop stop-color="#ABA56E" stop-opacity="0.55"/>
<stop offset="0.909729" stop-color="#FBFBFB"/>
</linearGradient>
<linearGradient id="paint20_linear_2043_236" x1="349.18" y1="141.998" x2="378.76" y2="143.225" gradientUnits="userSpaceOnUse">
<stop stop-color="#ABA56E" stop-opacity="0.55"/>
<stop offset="0.909729" stop-color="#FBFBFB"/>
</linearGradient>
<linearGradient id="paint21_linear_2043_236" x1="375.535" y1="127.707" x2="391.532" y2="127.98" gradientUnits="userSpaceOnUse">
<stop stop-color="#ABA56E" stop-opacity="0.55"/>
<stop offset="0.909729" stop-color="#FBFBFB"/>
</linearGradient>
<linearGradient id="paint22_linear_2043_236" x1="386.122" y1="127.036" x2="409.711" y2="127.563" gradientUnits="userSpaceOnUse">
<stop stop-color="#ABA56E" stop-opacity="0.55"/>
<stop offset="0.909729" stop-color="#FBFBFB"/>
</linearGradient>
</defs>
</svg>
