<svg preserveAspectRatio="none" width="100%" height="100%" overflow="visible" style="display: block;" viewBox="0 0 268.001 21" fill="none" xmlns="http://www.w3.org/2000/svg">
<path id="Vector 63" d="M1 1C1.10686 1 1.21372 1 40.9372 1.21478C80.6608 1.42956 159.998 1.85913 204.977 2.37978C249.957 2.90043 258.176 3.49915 263.607 3.80758C269.039 4.11602 271.435 4.11602 242.913 5.35349C214.391 6.59096 154.88 9.0659 123.783 10.3869C92.686 11.708 91.8074 11.8001 105.402 11.5344C118.996 11.2687 147.091 10.6424 162.123 10.3409C177.155 10.0394 178.273 10.0815 179.029 10.2417C179.785 10.4018 180.145 10.6785 179.772 10.9548C179.399 11.231 178.284 11.4983 170.706 12.6744C163.128 13.8505 149.122 15.9273 141.502 17.109C133.882 18.2908 133.073 18.5146 133.209 18.7513C133.344 18.988 134.448 19.2308 138.189 19.4415C141.93 19.6522 148.274 19.8235 154.81 20" stroke="#D3B892" stroke-width="2" stroke-linecap="round"/>
</svg>
